<?xml version="1.0" encoding="utf-8"?>
<!-- Generator: Adobe Illustrator 23.0.1, SVG Export Plug-In . SVG Version: 6.00 Build 0)  -->
<svg version="1.1" id="Layer_1" xmlns="http://www.w3.org/2000/svg" xmlns:xlink="http://www.w3.org/1999/xlink" x="0px" y="0px"
	 viewBox="0 0 141.7 141.7" style="enable-background:new 0 0 141.7 141.7;" xml:space="preserve">
<style type="text/css">
	.st0{fill:#F05323;}
</style>
<g>
	<path class="st0" d="M67,5.9c2.1-3.3,5.6-3.3,7.8,0c2.1,3.3,6.3,3.8,9.2,1.2c2.9-2.6,6.3-1.7,7.5,2s5.1,5.3,8.5,3.5
		c3.5-1.8,6.5,0,6.7,3.9c0.2,3.9,3.5,6.4,7.3,5.6s6.3,1.7,5.5,5.5c-0.8,3.8,1.7,7.1,5.6,7.3c3.9,0.2,5.6,3.2,3.9,6.7
		c-1.8,3.5-0.2,7.3,3.5,8.5s4.6,4.6,2,7.5c-2.6,2.9-2.1,7,1.2,9.2c3.3,2.1,3.3,5.6,0,7.8c-3.3,2.1-3.8,6.3-1.2,9.2
		c2.6,2.9,1.7,6.3-2,7.5s-5.3,5.1-3.5,8.5c1.8,3.5,0,6.5-3.9,6.7c-3.9,0.2-6.4,3.5-5.6,7.3c0.8,3.8-1.7,6.3-5.5,5.5
		c-3.8-0.8-7.1,1.7-7.3,5.6c-0.2,3.9-3.2,5.6-6.7,3.9c-3.5-1.8-7.3-0.2-8.5,3.5s-4.6,4.6-7.5,2c-2.9-2.6-7-2.1-9.2,1.2
		c-2.1,3.3-5.6,3.3-7.8,0c-2.1-3.3-6.3-3.8-9.2-1.2c-2.9,2.6-6.3,1.7-7.5-2s-5.1-5.3-8.5-3.5c-3.5,1.8-6.5,0-6.7-3.9
		c-0.2-3.9-3.5-6.4-7.3-5.6c-3.8,0.8-6.3-1.7-5.5-5.5s-1.7-7.1-5.6-7.3c-3.9-0.2-5.6-3.2-3.9-6.7c1.8-3.5,0.2-7.3-3.5-8.5
		s-4.6-4.6-2-7.5c2.6-2.9,2.1-7-1.2-9.2c-3.3-2.1-3.3-5.6,0-7.8c3.3-2.1,3.8-6.3,1.2-9.2c-2.6-2.9-1.7-6.3,2-7.5s5.3-5.1,3.5-8.5
		c-1.8-3.5,0-6.5,3.9-6.7c3.9-0.2,6.4-3.5,5.6-7.3s1.7-6.3,5.5-5.5s7.1-1.7,7.3-5.6c0.2-3.9,3.2-5.6,6.7-3.9
		c3.5,1.8,7.3,0.2,8.5-3.5s4.6-4.6,7.5-2C60.7,9.7,64.8,9.2,67,5.9z"/>
</g>
</svg>
