<?xml version="1.0" encoding="utf-8"?>
<!-- Generator: Adobe Illustrator 23.0.1, SVG Export Plug-In . SVG Version: 6.00 Build 0)  -->
<svg version="1.1" id="Layer_1" xmlns="http://www.w3.org/2000/svg" xmlns:xlink="http://www.w3.org/1999/xlink" x="0px" y="0px"
	 viewBox="0 0 99.9 57.9" style="enable-background:new 0 0 99.9 57.9;" xml:space="preserve">
<style type="text/css">
	.st0{fill:#00AEEF;}
</style>
<title>Asset 12</title>
<path vector-effect="non-scaling-stroke" class="st0" d="M35.6,31.1c0.9,2.3-0.3,4.9-2.6,5.8c-2.3,0.9-4.9-0.3-5.8-2.6
	c-0.4-1-0.4-2.1,0-3.2l4.2-11L35.6,31.1z"/>
<path vector-effect="non-scaling-stroke" class="st0" d="M60.9,31.1c0.9,2.3-0.3,4.9-2.6,5.8c-2.3,0.9-4.9-0.3-5.8-2.6
	c-0.4-1-0.4-2.1,0-3.2l4.2-11L60.9,31.1z"/>
<path vector-effect="non-scaling-stroke" class="st0" d="M49.8,49.1c0.9,2.3-0.3,4.9-2.6,5.8c-2.3,0.9-4.9-0.3-5.8-2.6
	c-0.4-1-0.4-2.1,0-3.2l4.2-11L49.8,49.1z"/>
<path vector-effect="non-scaling-stroke" class="st0" d="M75,49.1c0.9,2.3-0.3,4.9-2.6,5.8c-2.3,0.9-4.9-0.3-5.8-2.6
	c-0.4-1-0.4-2.1,0-3.2l4.2-11L75,49.1z"/>
</svg>
