<svg xmlns="http://www.w3.org/2000/svg" xmlns:xlink="http://www.w3.org/1999/xlink" viewBox="0 0 566.9291 425.1969"><defs><style>.cls-1{isolation:isolate;}.cls-2{fill:#7d7d7d;}.cls-3{fill:#f6891f;}.cls-4{mask:url(#mask);}.cls-5{opacity:0.05;mix-blend-mode:multiply;}.cls-6{filter:url(#luminosity-invert);}</style><filter id="luminosity-invert" filterUnits="userSpaceOnUse" color-interpolation-filters="sRGB"><feColorMatrix values="-1 0 0 0 1 0 -1 0 0 1 0 0 -1 0 1 0 0 0 1 0"/></filter><mask id="mask" x="94.3503" y="117.8895" width="378.24" height="35.28" maskUnits="userSpaceOnUse"></mask></defs><title>Top</title><g class="cls-1"><g id="Layer_4" data-name="Layer 4"><path class="cls-2" d="M263.7586,146.6012h25.63a0,0,0,0,1,0,0v63.037A11.4815,11.4815,0,0,1,277.9068,221.12H275.24a11.4815,11.4815,0,0,1-11.4815-11.4815v-63.037A0,0,0,0,1,263.7586,146.6012Z"/><path class="cls-2" d="M311.3241,149.2679a1.3471,1.3471,0,0,0-1.3543,1.4159l2.7628,62.057a1.5,1.5,0,0,0,1.48,1.416h.3135a2.38,2.38,0,0,0,1.9947-1.2944l9.2527-20.7446c.3175-.7119-.0539-1.2031-.8254-1.0915l-6.1575.8906a1.2471,1.2471,0,0,1-1.4529-1.2136l-1.4182-40.019a1.4836,1.4836,0,0,0-1.4675-1.4164Z"/><path class="cls-2" d="M239.9908,149.2679a1.347,1.347,0,0,0-1.3543,1.4159l2.7628,62.057a1.5,1.5,0,0,0,1.48,1.416h.3135a2.38,2.38,0,0,0,1.9946-1.2944l9.2528-20.7446c.3175-.7119-.0539-1.2031-.8254-1.0915l-6.1575.8906a1.2472,1.2472,0,0,1-1.453-1.2136l-1.4181-40.019a1.4837,1.4837,0,0,0-1.4675-1.4164Z"/><path class="cls-3" d="M469.7247,151.0434H97.2044a.7086.7086,0,0,1-.7069-.758l1.5471-22.162a8.2372,8.2372,0,0,1,8.18-7.66l177.24-.53,177.24.53a8.2374,8.2374,0,0,1,8.18,7.66l1.547,22.162A.7086.7086,0,0,1,469.7247,151.0434Z"/><g class="cls-4"><g class="cls-5"><path d="M469.7247,151.0434H97.2044a.7086.7086,0,0,1-.7069-.758l1.5471-22.162a8.2372,8.2372,0,0,1,8.18-7.66l177.24-.53,177.24.53a8.2374,8.2374,0,0,1,8.18,7.66l1.547,22.162A.7086.7086,0,0,1,469.7247,151.0434Z"/></g></g></g></g></svg>